<svg width="800" height="400" viewBox="0 0 800 400" fill="none" xmlns="http://www.w3.org/2000/svg">
<rect width="800" height="400" fill="url(#gradient0_linear_1_1)"/>
<rect x="200" y="100" width="400" height="200" rx="20" fill="url(#gradient1_linear_1_1)"/>
<rect x="220" y="120" width="80" height="80" rx="12" fill="#1d4ed8"/>
<rect x="320" y="120" width="80" height="80" rx="12" fill="#ef4444"/>
<rect x="420" y="120" width="80" height="80" rx="12" fill="#1d4ed8"/>
<rect x="220" y="220" width="80" height="80" rx="12" fill="#ef4444"/>
<rect x="320" y="220" width="80" height="80" rx="12" fill="#1d4ed8"/>
<rect x="420" y="220" width="80" height="80" rx="12" fill="#ef4444"/>
<rect x="220" y="320" width="80" height="80" rx="12" fill="#1d4ed8"/>
<rect x="320" y="320" width="80" height="80" rx="12" fill="#ef4444"/>
<rect x="420" y="320" width="80" height="80" rx="12" fill="#1d4ed8"/>
<text x="400" y="50" text-anchor="middle" fill="white" font-family="Arial, sans-serif" font-size="36" font-weight="bold">TicTacToe Pro</text>
<text x="400" y="80" text-anchor="middle" fill="#cbd5e1" font-family="Arial, sans-serif" font-size="18">Master the grid, multiply your score!</text>
<defs>
<linearGradient id="gradient0_linear_1_1" x1="0" y1="0" x2="800" y2="400" gradientUnits="userSpaceOnUse">
<stop stop-color="#1e3a8a"/>
<stop offset="1" stop-color="#0f172a"/>
</linearGradient>
<linearGradient id="gradient1_linear_1_1" x1="200" y1="100" x2="600" y2="300" gradientUnits="userSpaceOnUse">
<stop stop-color="#ffffff" stop-opacity="0.1"/>
<stop offset="1" stop-color="#ffffff" stop-opacity="0.05"/>
</linearGradient>
</defs>
</svg>
