<svg width="1200" height="630" viewBox="0 0 1200 630" fill="none" xmlns="http://www.w3.org/2000/svg">
<rect width="1200" height="630" fill="url(#gradient0_linear_1_1)"/>
<rect x="300" y="150" width="600" height="300" rx="24" fill="url(#gradient1_linear_1_1)"/>
<rect x="330" y="180" width="120" height="120" rx="18" fill="#1d4ed8"/>
<rect x="480" y="180" width="120" height="120" rx="18" fill="#ef4444"/>
<rect x="630" y="180" width="120" height="120" rx="18" fill="#1d4ed8"/>
<rect x="330" y="330" width="120" height="120" rx="18" fill="#ef4444"/>
<rect x="480" y="330" width="120" height="120" rx="18" fill="#1d4ed8"/>
<rect x="630" y="330" width="120" height="120" rx="18" fill="#ef4444"/>
<rect x="330" y="480" width="120" height="120" rx="18" fill="#1d4ed8"/>
<rect x="480" y="480" width="120" height="120" rx="18" fill="#ef4444"/>
<rect x="630" y="480" width="120" height="120" rx="18" fill="#1d4ed8"/>
<text x="600" y="100" text-anchor="middle" fill="white" font-family="Arial, sans-serif" font-size="64" font-weight="bold">TicTacToe Pro</text>
<text x="600" y="140" text-anchor="middle" fill="#cbd5e1" font-family="Arial, sans-serif" font-size="32">Strategic XO with Multipliers</text>
<rect x="400" y="500" width="400" height="80" rx="16" fill="url(#gradient2_linear_1_1)"/>
<text x="600" y="550" text-anchor="middle" fill="white" font-family="Arial, sans-serif" font-size="24" font-weight="bold">Play Now on Base Mini Apps</text>
<defs>
<linearGradient id="gradient0_linear_1_1" x1="0" y1="0" x2="1200" y2="630" gradientUnits="userSpaceOnUse">
<stop stop-color="#1e3a8a"/>
<stop offset="1" stop-color="#0f172a"/>
</linearGradient>
<linearGradient id="gradient1_linear_1_1" x1="300" y1="150" x2="900" y2="450" gradientUnits="userSpaceOnUse">
<stop stop-color="#ffffff" stop-opacity="0.1"/>
<stop offset="1" stop-color="#ffffff" stop-opacity="0.05"/>
</linearGradient>
<linearGradient id="gradient2_linear_1_1" x1="400" y1="500" x2="800" y2="580" gradientUnits="userSpaceOnUse">
<stop stop-color="#f59e0b"/>
<stop offset="1" stop-color="#f97316"/>
</linearGradient>
</defs>
</svg>
